<svg width="16" height="17" viewBox="0 0 16 17" fill="none" xmlns="http://www.w3.org/2000/svg">
<g id="SVG">
<path id="Vector" d="M10.25 9.43994L8 11.9399M8 11.9399L5.75 9.43994M8 11.9399V5.43994M8 14.9399C6.3424 14.9399 4.75268 14.2815 3.58058 13.1094C2.40848 11.9373 1.75 10.3475 1.75 8.68994C1.75 7.03234 2.40848 5.44263 3.58058 4.27052C4.75268 3.09842 6.3424 2.43994 8 2.43994C9.6576 2.43994 11.2473 3.09842 12.4194 4.27052C13.5915 5.44263 14.25 7.03234 14.25 8.68994C14.25 10.3475 13.5915 11.9373 12.4194 13.1094C11.2473 14.2815 9.6576 14.9399 8 14.9399Z" stroke="white" stroke-opacity="0.6" stroke-width="1.5" stroke-linecap="round" stroke-linejoin="round"/>
</g>
</svg>
