<svg width="32" height="33" viewBox="0 0 32 33" fill="none" xmlns="http://www.w3.org/2000/svg">
<g id="SVG">
<path id="Vector" d="M11.5 15.1899L16 10.1899M16 10.1899L20.5 15.1899M16 10.1899V23.1899M16 4.18994C19.3152 4.18994 22.4946 5.5069 24.8388 7.85111C27.183 10.1953 28.5 13.3747 28.5 16.6899C28.5 20.0051 27.183 23.1846 24.8388 25.5288C22.4946 27.873 19.3152 29.1899 16 29.1899C12.6848 29.1899 9.50537 27.873 7.16117 25.5288C4.81696 23.1846 3.5 20.0051 3.5 16.6899C3.5 13.3747 4.81696 10.1953 7.16117 7.85111C9.50537 5.5069 12.6848 4.18994 16 4.18994Z" stroke="white" stroke-width="3" stroke-linecap="round" stroke-linejoin="round"/>
</g>
</svg>
