<svg width="1000" height="640" viewBox="0 0 1000 640" fill="none" xmlns="http://www.w3.org/2000/svg">
<g style="mix-blend-mode:overlay">
<path d="M500 0L503.263 304.137L629.41 10.904L509.567 305.218L750 42.872L515.219 307.306L853.553 93.726L519.834 310.26L933.013 160L523.097 313.877L982.96 237.178L524.786 317.912L1000 320L524.786 322.088L982.96 402.822L523.097 326.123L933.013 480L519.834 329.74L853.553 546.274L515.219 332.694L750 597.128L509.567 334.782L629.41 629.096L503.263 335.863L500 640L496.737 335.863L370.59 629.096L490.433 334.782L250 597.128L484.781 332.694L146.447 546.274L480.166 329.74L66.987 480L476.903 326.123L17.037 402.822L475.214 322.088L0 320L475.214 317.912L17.037 237.178L476.903 313.877L66.987 160L480.166 310.26L146.447 93.726L484.781 307.306L250 42.872L490.433 305.218L370.59 10.904L496.737 304.137L500 0Z" fill="white"/>
<path d="M628.842 197.212L657.297 164.158" stroke="url(#paint0_linear_3003_8)" stroke-width="3" stroke-linecap="round"/>
<path d="M623.283 259.501L695.114 204.717" stroke="url(#paint1_linear_3003_8)" stroke-width="3" stroke-linecap="round"/>
<path d="M377.519 254.06L304.336 201.095" stroke="url(#paint2_linear_3003_8)" stroke-width="3" stroke-linecap="round"/>
<path d="M460.752 233.931L434.836 198.851" stroke="url(#paint3_linear_3003_8)" stroke-width="3" stroke-linecap="round"/>
<path d="M360.199 178.55L329.959 147.121" stroke="url(#paint4_linear_3003_8)" stroke-width="3" stroke-linecap="round"/>
<path d="M544.275 231.245L562.725 191.725" stroke="url(#paint5_linear_3003_8)" stroke-width="3" stroke-linecap="round"/>
<path d="M502.675 263.201L503.763 230.2" stroke="url(#paint6_linear_3003_8)" stroke-width="3" stroke-linecap="round"/>
</g>
<defs>
<linearGradient id="paint0_linear_3003_8" x1="658.035" y1="162.348" x2="627.623" y2="197.676" gradientUnits="userSpaceOnUse">
<stop offset="0.071" stop-color="white" stop-opacity="0"/>
<stop offset="0.495" stop-color="white"/>
<stop offset="1" stop-color="white" stop-opacity="0"/>
</linearGradient>
<linearGradient id="paint1_linear_3003_8" x1="696.492" y1="202.884" x2="622.276" y2="259.488" gradientUnits="userSpaceOnUse">
<stop stop-color="white" stop-opacity="0"/>
<stop offset="0.495" stop-color="white"/>
<stop offset="1" stop-color="white" stop-opacity="0"/>
</linearGradient>
<linearGradient id="paint2_linear_3003_8" x1="302.184" y1="200.304" x2="377.797" y2="255.028" gradientUnits="userSpaceOnUse">
<stop stop-color="white" stop-opacity="0"/>
<stop offset="0.495" stop-color="white"/>
<stop offset="1" stop-color="white" stop-opacity="0"/>
</linearGradient>
<linearGradient id="paint3_linear_3003_8" x1="433.235" y1="197.73" x2="460.934" y2="235.223" gradientUnits="userSpaceOnUse">
<stop stop-color="white" stop-opacity="0"/>
<stop offset="0.495" stop-color="white"/>
<stop offset="1" stop-color="white" stop-opacity="0"/>
</linearGradient>
<linearGradient id="paint4_linear_3003_8" x1="328.227" y1="146.216" x2="360.547" y2="179.807" gradientUnits="userSpaceOnUse">
<stop offset="0.071" stop-color="white" stop-opacity="0"/>
<stop offset="0.495" stop-color="white"/>
<stop offset="1" stop-color="white" stop-opacity="0"/>
</linearGradient>
<linearGradient id="paint5_linear_3003_8" x1="562.946" y1="189.783" x2="543.227" y2="232.021" gradientUnits="userSpaceOnUse">
<stop stop-color="white" stop-opacity="0"/>
<stop offset="0.495" stop-color="white"/>
<stop offset="1" stop-color="white" stop-opacity="0"/>
</linearGradient>
<linearGradient id="paint6_linear_3003_8" x1="503.2" y1="228.407" x2="502.014" y2="264.407" gradientUnits="userSpaceOnUse">
<stop stop-color="white" stop-opacity="0"/>
<stop offset="0.495" stop-color="white"/>
<stop offset="1" stop-color="white" stop-opacity="0"/>
</linearGradient>
</defs>
</svg>
