<svg width="16" height="17" viewBox="0 0 16 17" fill="none" xmlns="http://www.w3.org/2000/svg">
<g id="SVG">
<path id="Vector" d="M5.75 4.43994H4.75C4.48478 4.43994 4.23043 4.5453 4.04289 4.73283C3.85536 4.92037 3.75 5.17472 3.75 5.43994V6.43994M5.75 4.43994V2.43994M5.75 4.43994H10.25M3.75 6.43994V10.9399M3.75 6.43994H1.75M10.25 4.43994H11.25C11.5152 4.43994 11.7696 4.5453 11.9571 4.73283C12.1446 4.92037 12.25 5.17472 12.25 5.43994V6.43994M10.25 4.43994V2.43994M12.25 6.43994H14.25M12.25 6.43994V10.9399M5.75 14.9399V12.9399M10.25 14.9399V12.9399M12.25 10.9399V11.9399C12.25 12.2052 12.1446 12.4595 11.9571 12.647C11.7696 12.8346 11.5152 12.9399 11.25 12.9399H4.75C4.48478 12.9399 4.23043 12.8346 4.04289 12.647C3.85536 12.4595 3.75 12.2052 3.75 11.9399V10.9399M12.25 10.9399H14.25M3.75 10.9399H1.75" stroke="white" stroke-opacity="0.6" stroke-width="1.5" stroke-linecap="round" stroke-linejoin="round"/>
</g>
</svg>
