<svg width="16" height="17" viewBox="0 0 16 17" fill="none" xmlns="http://www.w3.org/2000/svg">
<g id="SVG">
<path id="Vector" d="M9.093 2.28394C9.093 2.28394 10.531 4.27294 10.531 8.18994C10.531 12.1069 9.093 14.0959 9.093 14.0959M6.907 2.28394C6.907 2.28394 5.469 4.27294 5.469 8.18994C5.469 12.1069 6.907 14.0959 6.907 14.0959M1.755 8.18994H14.245M14.25 8.18994C14.25 9.84754 13.5915 11.4373 12.4194 12.6094C11.2473 13.7815 9.6576 14.4399 8 14.4399C6.3424 14.4399 4.75268 13.7815 3.58058 12.6094C2.40848 11.4373 1.75 9.84754 1.75 8.18994C1.75 6.53234 2.40848 4.94263 3.58058 3.77052C4.75268 2.59842 6.3424 1.93994 8 1.93994C9.6576 1.93994 11.2473 2.59842 12.4194 3.77052C13.5915 4.94263 14.25 6.53234 14.25 8.18994Z" stroke="white" stroke-width="1.5" stroke-linecap="round" stroke-linejoin="round"/>
</g>
</svg>
